<?xml version="1.0" standalone="no"?>
<!DOCTYPE svg PUBLIC "-//W3C//DTD SVG 20010904//EN"
 "http://www.w3.org/TR/2001/REC-SVG-20010904/DTD/svg10.dtd">
<svg version="1.0" xmlns="http://www.w3.org/2000/svg"
 width="900.000000pt" height="900.000000pt" viewBox="0 0 900.000000 900.000000"
 preserveAspectRatio="xMidYMid meet">
<metadata>
Created by potrace 1.10, written by Peter Selinger 2001-2011
</metadata>
<g transform="translate(0.000000,900.000000) scale(0.100000,-0.100000)"
fill="#000000" stroke="none">
<path d="M4280 7569 c-36 -5 -119 -13 -185 -18 -66 -5 -145 -14 -175 -21 -30
-6 -89 -18 -130 -27 -264 -53 -374 -93 -343 -124 6 -6 42 -4 104 6 110 18 436
21 489 4 19 -6 60 -14 90 -19 30 -5 99 -15 152 -23 54 -9 102 -19 108 -22 6
-4 53 -17 104 -30 51 -13 102 -27 112 -33 10 -5 44 -17 74 -26 66 -20 126 -43
162 -62 14 -8 31 -14 37 -14 10 0 107 -44 231 -103 25 -12 77 -40 115 -63 39
-22 77 -43 85 -47 8 -4 29 -16 45 -27 17 -11 37 -23 45 -27 8 -3 31 -19 50
-34 19 -14 53 -37 75 -49 22 -12 54 -30 70 -40 70 -44 104 -58 167 -70 83 -17
126 -3 172 53 28 35 31 46 31 105 0 74 -10 98 -81 192 -65 86 -142 162 -229
227 -84 63 -179 123 -194 123 -5 0 -35 12 -67 26 -33 15 -75 31 -94 35 -19 4
-82 20 -140 34 -162 41 -228 53 -315 60 -44 3 -127 10 -185 15 -126 11 -291
10 -380 -1z"/>
<path d="M3490 7280 c-58 -4 -130 -16 -160 -25 -30 -9 -75 -23 -100 -31 -65
-19 -133 -44 -145 -53 -5 -5 -35 -17 -65 -29 -55 -20 -141 -64 -212 -109 -21
-13 -40 -23 -43 -23 -3 0 -11 -5 -18 -10 -35 -30 -107 -80 -114 -80 -14 0
-121 -95 -295 -261 -160 -153 -258 -265 -258 -295 0 -22 26 -27 57 -11 15 8
51 27 78 41 28 15 64 35 80 46 42 26 135 70 220 103 115 45 149 51 295 51 162
1 172 -2 237 -73 95 -103 43 -237 -184 -472 -51 -53 -117 -127 -146 -165 -62
-80 -194 -298 -221 -364 -10 -25 -30 -70 -44 -100 -36 -76 -81 -205 -92 -265
-5 -27 -14 -61 -19 -75 -5 -14 -17 -83 -26 -155 -26 -201 -10 -599 29 -722 8
-26 23 -75 32 -108 23 -83 43 -145 59 -180 150 -336 157 -345 462 -657 101
-102 183 -192 183 -200 0 -17 -32 -65 -56 -83 -10 -8 -31 -15 -46 -15 -34 0
-78 -43 -78 -76 0 -77 120 -199 265 -267 108 -51 168 -69 312 -92 95 -16 110
-16 215 0 62 9 131 21 153 27 22 6 58 15 80 19 22 4 72 17 110 29 86 26 197
41 248 33 45 -7 87 -51 87 -93 0 -41 -36 -105 -78 -140 -43 -35 -203 -115
-275 -137 -38 -12 -107 -17 -252 -20 -237 -5 -305 6 -463 73 -18 8 -37 14 -42
14 -10 0 -141 62 -175 83 -103 63 -282 228 -361 332 -42 56 -76 129 -81 179
-10 82 48 156 123 156 17 0 37 6 43 14 13 15 5 46 -13 46 -13 1 -147 128 -235
225 -94 103 -137 172 -257 413 -52 104 -75 139 -107 165 -92 73 -173 69 -258
-15 -152 -149 -229 -463 -181 -738 20 -114 108 -309 184 -411 16 -20 28 -40
28 -43 0 -4 35 -53 77 -109 122 -161 445 -478 578 -567 28 -19 85 -60 127 -92
42 -32 81 -58 87 -58 5 0 39 -20 75 -45 36 -24 96 -59 133 -76 38 -17 75 -35
83 -40 8 -5 22 -12 30 -15 8 -3 33 -13 55 -21 22 -8 48 -19 58 -24 10 -5 54
-21 97 -35 44 -14 83 -30 86 -35 3 -5 16 -9 29 -9 13 0 39 -6 57 -14 62 -25
103 -38 148 -46 25 -4 82 -17 128 -29 46 -12 138 -26 205 -31 67 -5 138 -13
157 -19 80 -21 529 6 640 39 19 5 48 10 65 10 27 0 68 11 160 42 17 5 46 14
65 18 80 18 193 67 335 144 21 12 34 22 159 131 125 109 166 153 166 179 0 32
-29 38 -88 20 -56 -16 -116 -18 -143 -3 -31 16 -88 82 -89 101 0 17 12 48 54
138 14 30 91 116 237 265 118 121 230 238 247 261 75 98 127 232 157 404 18
105 18 188 0 310 -36 249 -126 432 -239 488 -53 27 -131 27 -198 0 -50 -19
-65 -34 -177 -173 -118 -148 -237 -273 -316 -333 -33 -26 -66 -52 -74 -60 -19
-19 -117 -83 -186 -123 -256 -148 -612 -218 -883 -175 -55 9 -122 16 -150 16
-47 0 -51 -2 -61 -30 -5 -17 -34 -54 -63 -83 -86 -86 -178 -107 -294 -66 -32
11 -72 24 -89 28 -16 4 -57 20 -90 36 -33 15 -76 35 -95 44 -19 9 -51 28 -70
42 -19 14 -39 28 -45 30 -83 33 -310 245 -418 389 -48 65 -127 205 -127 225 0
4 -20 49 -45 101 -25 51 -45 99 -45 106 0 8 -4 18 -9 23 -5 6 -14 26 -19 45
-6 19 -15 49 -21 65 -11 32 -32 117 -52 205 -7 32 -14 164 -17 311 -3 216 -2
265 12 312 9 30 16 66 16 80 0 29 32 169 48 207 5 14 18 45 27 70 45 115 118
265 162 332 18 27 33 51 33 53 0 5 85 128 107 156 115 141 224 251 348 350 76
61 266 179 288 179 7 0 17 4 23 9 9 8 78 38 154 66 100 36 182 55 397 91 149
25 371 12 544 -32 30 -8 66 -14 78 -14 13 0 37 -6 54 -14 18 -8 41 -16 52 -19
205 -55 471 -242 698 -492 165 -181 194 -223 283 -405 20 -41 42 -88 49 -105
24 -58 75 -243 75 -272 0 -16 7 -38 15 -49 8 -10 14 -35 15 -54 0 -42 27 -161
46 -208 8 -18 14 -41 14 -52 0 -10 6 -31 14 -47 8 -15 23 -46 33 -68 44 -96
142 -207 231 -261 31 -20 50 -23 127 -23 75 0 97 4 135 24 25 13 54 28 65 34
50 24 173 179 219 276 10 22 23 49 29 59 5 11 13 31 17 45 5 14 18 51 30 81
12 30 25 69 30 85 5 17 13 44 18 60 6 17 17 64 26 105 53 265 58 384 26 600
-18 127 -24 156 -51 263 -5 23 -14 58 -19 77 -4 19 -18 60 -30 90 -12 30 -25
67 -30 81 -7 23 -18 46 -41 89 -5 8 -15 29 -23 45 -7 17 -30 54 -50 84 -20 29
-36 55 -36 58 0 3 -13 22 -30 43 -16 21 -30 41 -30 45 0 11 -35 53 -127 153
-61 66 -92 92 -108 92 -36 0 -37 -14 -7 -57 39 -56 51 -76 58 -93 3 -8 12 -28
19 -45 45 -104 60 -189 48 -287 -5 -40 -13 -56 -54 -96 -63 -63 -124 -80 -232
-62 -105 18 -241 71 -332 130 -16 11 -39 24 -50 30 -11 6 -33 19 -50 30 -16
11 -37 23 -45 27 -8 3 -31 19 -51 35 -20 15 -39 28 -42 28 -9 0 -94 57 -159
107 -31 24 -59 43 -63 43 -4 0 -32 19 -63 43 -66 49 -58 43 -227 145 -142 85
-249 138 -375 187 -25 9 -58 23 -75 30 -67 28 -170 65 -215 75 -19 5 -66 18
-105 30 -38 11 -97 25 -130 30 -33 5 -74 14 -92 19 -44 13 -464 21 -593 11z"/>
<path d="M2339 6235 c-25 -7 -54 -17 -65 -22 -71 -36 -95 -50 -143 -82 -68
-44 -288 -256 -344 -330 -71 -94 -85 -117 -151 -243 -26 -51 -52 -106 -56
-123 -8 -28 -17 -55 -45 -135 -7 -19 -20 -64 -30 -100 -9 -36 -23 -88 -31
-116 -8 -28 -14 -64 -14 -81 0 -16 -4 -43 -10 -59 -12 -38 -39 -296 -41 -397
-1 -44 3 -83 9 -89 7 -7 7 -19 1 -37 -6 -14 -7 -41 -4 -60 4 -19 10 -86 15
-150 14 -185 52 -409 78 -458 7 -12 12 -33 12 -47 0 -31 17 -43 35 -25 14 15
55 128 55 153 0 9 7 32 16 53 84 199 204 356 341 448 74 50 95 47 164 -26 32
-34 62 -58 68 -54 17 10 13 112 -5 148 -26 49 -26 567 -1 687 42 197 73 304
122 415 7 17 16 37 19 45 4 8 22 42 40 75 19 33 44 80 57 105 12 25 41 70 64
100 82 109 135 213 135 264 0 41 -51 114 -95 135 -40 20 -139 23 -196 6z"/>
<path d="M7050 6054 c0 -8 18 -53 40 -100 22 -47 40 -89 40 -93 0 -5 7 -22 15
-37 8 -16 15 -38 15 -50 0 -11 7 -29 15 -40 8 -10 15 -31 15 -46 0 -15 5 -39
11 -55 18 -43 48 -297 48 -403 1 -52 -4 -124 -10 -160 -5 -36 -13 -90 -18
-120 -4 -30 -12 -65 -19 -77 -7 -12 -12 -37 -12 -55 0 -19 -7 -43 -15 -54 -8
-10 -15 -28 -15 -39 0 -11 -7 -29 -15 -39 -8 -11 -15 -27 -15 -36 0 -33 -148
-277 -259 -427 -187 -252 -234 -332 -265 -453 -10 -36 -22 -80 -27 -97 -6 -18
-14 -54 -18 -80 -5 -27 -14 -70 -21 -98 -6 -27 -19 -77 -27 -110 -39 -162 -84
-274 -178 -440 -19 -33 -37 -67 -41 -75 -4 -8 -31 -46 -60 -85 -68 -91 -226
-245 -398 -389 -25 -21 -46 -44 -46 -50 0 -31 54 -38 157 -20 56 11 139 -75
112 -117 -5 -8 -9 -24 -9 -35 0 -64 -100 -197 -254 -340 -77 -71 -88 -90 -61
-100 16 -7 25 -4 70 25 17 11 62 35 100 55 39 19 105 59 149 88 43 29 85 58
94 63 9 6 86 62 172 126 184 138 371 318 525 504 22 26 47 55 56 64 16 17 155
202 176 236 7 11 23 40 36 65 12 25 34 63 48 85 25 40 80 151 106 213 7 17 19
47 27 65 7 17 21 52 31 77 9 25 22 56 27 70 6 14 14 39 18 55 5 17 13 44 18
60 49 142 96 362 118 550 23 192 23 667 0 775 -9 41 -16 88 -16 104 0 16 -6
55 -14 85 -13 52 -21 90 -46 211 -5 25 -18 70 -30 100 -12 30 -32 87 -45 125
-44 129 -73 200 -103 250 -10 17 -38 66 -62 110 -56 103 -95 161 -115 169 -23
9 -25 8 -25 -10z"/>
</g>
</svg>
